# xmcd
#
# Track frame offsets:
#	150
#	13366
#	27585
#	51272
#	69918
#	85193
#	109946
#	134060
#	174544
#	201509
#
# Disc length: 3360 seconds
#
# Revision: 1
# Processed by: cddbd v1.5.1PL2 Copyright (c) Steve Scherf et al.
# Submitted via: EasyCDDAExtractor 9.0.0.1
#
DISCID=960d1e0a
DTITLE=Accept - Luzhniki Sports Arena Moscow 27-04-05 Disc 2
DYEAR=2005
DGENRE=Hard Rock
TTITLE0=Restless And Wild
TTITLE1=Son Of A Bitch
TTITLE2=Turn Me On
TTITLE3=TV War
TTITLE4=Monsterman
TTITLE5=Flash Rockin' Man
TTITLE6=Fast As A Shark
TTITLE7=Princess Of The Dawn
TTITLE8=Winter Dreams
TTITLE9=Balls To The Wall
EXTD=
EXTT0=
EXTT1=
EXTT2=
EXTT3=
EXTT4=
EXTT5=
EXTT6=
EXTT7=
EXTT8=
EXTT9=
PLAYORDER=
